<?xml version="1.0" standalone="no"?>
<!DOCTYPE svg PUBLIC "-//W3C//DTD SVG 20010904//EN"
 "http://www.w3.org/TR/2001/REC-SVG-20010904/DTD/svg10.dtd">
<svg version="1.0" xmlns="http://www.w3.org/2000/svg"
 width="575.000000pt" height="575.000000pt" viewBox="0 0 575.000000 575.000000"
 preserveAspectRatio="xMidYMid meet">
<metadata>
Created by potrace 1.14, written by Peter Selinger 2001-2017
</metadata>
<g transform="translate(0.000000,575.000000) scale(0.100000,-0.100000)"
fill="#000000" stroke="none">
<path d="M2759 4466 c-2 -2 -47 -6 -99 -9 -217 -13 -442 -55 -647 -121 -186
-59 -211 -69 -338 -131 -238 -115 -452 -286 -618 -495 -116 -145 -167 -239
-207 -380 -49 -178 -62 -270 -65 -490 -2 -96 -6 -200 -8 -230 -7 -74 -18 -164
-22 -170 -6 -10 -18 -155 -18 -211 0 -41 6 -67 23 -95 22 -37 92 -125 135
-170 11 -12 32 -34 46 -50 61 -67 360 -356 434 -418 128 -109 130 -110 158
-125 15 -8 27 -18 27 -23 0 -4 5 -8 12 -8 6 0 52 -26 102 -59 50 -32 102 -62
116 -66 14 -4 30 -11 35 -15 40 -32 393 -126 540 -144 22 -3 63 -10 90 -15
163 -31 540 -35 724 -7 318 48 711 194 981 364 205 129 387 325 499 533 57
107 72 147 106 276 13 51 36 111 50 133 26 42 92 186 126 275 78 209 87 455
23 674 -9 31 -40 108 -69 172 -60 132 -81 195 -125 375 -35 144 -45 167 -97
218 -96 95 -393 259 -523 290 -62 15 -323 48 -475 61 -65 5 -347 39 -425 50
-43 7 -485 17 -491 11z"/>
</g>
</svg>
